<?xml version="1.0" encoding="utf-8"?>
<!-- Generator: Adobe Illustrator 16.0.3, SVG Export Plug-In . SVG Version: 6.00 Build 0)  -->
<!DOCTYPE svg PUBLIC "-//W3C//DTD SVG 1.1//EN" "http://www.w3.org/Graphics/SVG/1.1/DTD/svg11.dtd">
<svg version="1.1" id="Layer_1" xmlns="http://www.w3.org/2000/svg" xmlns:xlink="http://www.w3.org/1999/xlink" x="0px" y="0px"
	 width="512px" height="512px" viewBox="0 0 512 512" enable-background="new 0 0 512 512" xml:space="preserve">
<g>
	<g>
		<path fill="#DB2363" d="M93.917,325.087c-4.074,0-8.148-1.555-11.259-4.665c-6.222-6.222-6.222-16.299,0-22.52L370.653,9.895
			c6.222-6.22,16.3-6.221,22.519,0c6.222,6.215,6.222,16.298,0,22.519L105.177,320.422
			C102.065,323.533,97.991,325.086,93.917,325.087z"/>
		<path fill="#DB2363" d="M386.309,328.321c-4.074,0-8.148-1.556-11.26-4.665c-6.221-6.221-6.221-16.299,0-22.52l95.106-95.116
			c6.22-6.22,16.298-6.221,22.519,0c6.221,6.221,6.221,16.299,0,22.52l-95.105,95.116
			C394.458,326.766,390.384,328.321,386.309,328.321z"/>
		<path fill="#DB2363" d="M241.728,472.893c-4.064,0-8.149-1.555-11.26-4.666c-6.22-6.221-6.22-16.299,0-22.519l111.602-111.591
			c6.221-6.221,16.299-6.221,22.521,0c6.22,6.221,6.22,16.3,0,22.52l-111.603,111.59
			C249.877,471.337,245.813,472.894,241.728,472.893z"/>
		<path fill="#DB2363" d="M230.8,415.952c-4.074,0-8.149-1.556-11.259-4.666c-6.221-6.221-6.221-16.298,0-22.519l137.208-137.189
			c6.222-6.221,16.3-6.221,22.52,0c6.222,6.222,6.222,16.299,0,22.52L242.06,411.286C238.949,414.396,234.874,415.952,230.8,415.952
			z"/>
		<path fill="#DB2363" d="M168.426,327.99c-4.074,0-8.149-1.556-11.259-4.666c-6.22-6.221-6.221-16.299,0-22.52l118.962-118.962
			c6.22-6.22,16.298-6.22,22.519,0c6.221,6.22,6.221,16.298,0,22.519L179.686,323.324C176.575,326.435,172.5,327.99,168.426,327.99z
			"/>
		<path fill="#DB2363" d="M319.395,177.032c-4.075,0-8.148-1.556-11.26-4.666c-6.221-6.221-6.221-16.298,0-22.514L450.798,7.195
			c6.22-6.221,16.298-6.221,22.519,0c6.222,6.22,6.221,16.304,0,22.519L330.653,172.366
			C327.543,175.477,323.469,177.033,319.395,177.032z"/>
		<g>
			<path fill="#DB2363" d="M167.825,504.421c-32.421,0-62.897-12.617-85.821-35.541c-47.324-47.319-47.324-124.322,0-171.642
				c22.917-22.924,53.395-35.552,85.815-35.552c32.416,0,62.897,12.629,85.831,35.563c22.913,22.913,35.541,53.396,35.541,85.815
				c0,32.41-12.628,62.893-35.551,85.815C230.717,491.804,200.235,504.421,167.825,504.421z M167.819,293.537
				c-23.908,0-46.386,9.311-63.295,26.222c-34.905,34.907-34.905,91.692,0,126.604c16.905,16.897,39.387,26.209,63.301,26.209
				c23.908,0,46.386-9.312,63.296-26.21c16.911-16.91,26.221-39.388,26.221-63.297s-9.311-46.387-26.221-63.296
				C214.211,302.857,191.728,293.537,167.819,293.537z"/>
		</g>
	</g>
	<g>
		<path fill="#242363" d="M354.459,333.371c-4.075,0-8.148-1.556-11.26-4.666c-6.222-6.221-6.222-16.298,0-22.52l95.105-95.11
			c6.221-6.221,16.299-6.221,22.52,0c6.221,6.215,6.22,16.299,0,22.52l-95.105,95.109
			C362.608,331.815,358.533,333.371,354.459,333.371z"/>
		<g>
			<path fill="#242363" d="M324.899,256.622l-79.295,79.286c-5.876-12.319-13.873-23.676-23.808-33.61
				c-8.217-8.221-17.409-15.107-27.309-20.574l72.316-72.313c6.215-6.215,6.215-16.298-0.001-22.519
				c-6.221-6.221-16.298-6.221-22.519,0l-82.575,82.571c-8.365-1.798-16.981-2.728-25.74-2.728c-1.331,0-2.658,0.029-3.982,0.071
				L361.322,37.464c6.221-6.221,6.221-16.304,0.001-22.521c-6.221-6.221-16.3-6.22-22.521,0L61.53,292.228
				c-3.965,3.092-7.766,6.447-11.377,10.06c-47.324,47.319-47.324,124.322,0,171.643c22.924,22.924,53.401,35.541,85.822,35.541
				c32.415,0,62.892-12.617,85.816-35.54c3.588-3.588,6.923-7.362,9.998-11.3l100.949-100.945c6.221-6.22,6.221-16.297,0.001-22.52
				c-6.222-6.221-16.3-6.221-22.52,0l-52.954,52.952c0.044-1.331,0.072-2.666,0.073-4.004c0-5.955-0.431-11.844-1.268-17.633
				l91.349-91.336c6.22-6.221,6.22-16.303,0-22.523C341.198,250.401,331.12,250.401,324.899,256.622z M207.7,441.681l-9.076,9.076
				c-1.212,1.212-2.18,2.574-2.92,4.021c-16.439,14.76-37.464,22.843-59.729,22.843c-23.914,0-46.396-9.311-63.302-26.209
				c-33.731-33.737-34.857-87.899-3.393-123.009c1.457-0.741,2.827-1.713,4.046-2.933l9.159-9.159
				c14.456-10.817,31.754-16.947,50.016-17.639l-7.183,7.183c-6.221,6.221-6.221,16.298,0,22.519
				c3.11,3.111,7.186,4.665,11.26,4.665c4.074,0.001,8.149-1.555,11.259-4.665l22.828-22.826
				c10.559,4.439,20.264,10.926,28.607,19.27c10.147,10.151,17.535,22.317,21.838,35.585l-33.419,33.415
				c-6.221,6.221-6.221,16.297,0,22.519c3.111,3.111,7.186,4.665,11.26,4.665s8.149-1.554,11.259-4.665l14.171-14.169
				C222.128,416.533,216.437,430.031,207.7,441.681z"/>
			<path fill="#242363" d="M441.467,12.244c-6.221-6.221-16.299-6.22-22.52,0L276.283,154.901c-6.221,6.216-6.221,16.299,0,22.519
				c3.111,3.11,7.187,4.667,11.261,4.667c4.075,0,8.149-1.556,11.259-4.667L441.467,34.763
				C447.688,28.547,447.688,18.464,441.467,12.244z"/>
		</g>
	</g>
	<path fill="#242363" d="M203.709,320.381c37.408,37.401,37.409,98.053,0,135.467c-37.409,37.405-98.066,37.405-135.476,0
		c-37.414-37.414-37.414-98.065,0-135.479C105.644,282.955,166.3,282.954,203.709,320.381z"/>
	<path fill="#BA2363" d="M196.646,327.441c33.508,33.503,33.509,87.831,0,121.346c-33.509,33.504-87.841,33.504-121.35,0
		c-33.513-33.515-33.514-87.843,0-121.355C108.806,293.918,163.138,293.918,196.646,327.441z"/>
	
		<line fill="none" stroke="#DB2363" stroke-width="29" stroke-linecap="round" stroke-miterlimit="10" x1="366.879" y1="199.08" x2="405.664" y2="160.294"/>
	
		<line fill="none" stroke="#242363" stroke-width="29" stroke-linecap="round" stroke-miterlimit="10" x1="332.846" y1="219.864" x2="371.632" y2="181.079"/>
</g>
</svg>
